# xmcd
#
# Track frame offsets:
#       183
#       16633
#       31783
#       42558
#       56870
#       70770
#       83283
#       101108
#       110345
#       126308
#       141220
#       156233
#       169045
#       184170
#
# Disc length: 2623 seconds
#
# Revision: 1
# Processed by: cddbd v1.4PL0 Copyright (c) Steve Scherf et al.
# Submitted via: MusiCat 1.1
#
DISCID=b50a3d0e
DTITLE=Vari - Cocktail italiano vol. 6
DYEAR=1900
DGENRE=
TTITLE0=Il cuore e' uno zingaro-Nicola di Bari
TTITLE1=Come e' dolce la sera-Donatello
TTITLE2=Una ragazza in due-I Giganti
TTITLE3=Non aspetto nessuno-Little Tony
TTITLE4=P... come-Fabio Concato
TTITLE5=Fra noi (e' finita cosi')-Iva Zanicchi
TTITLE6=Semo gente de borgata-Wilma Goich
TTITLE7=Impazzivo per te-Adriano Celentano
TTITLE8=L'ora dell'amore-I Camaleonti
TTITLE9=Il sole e' di tutti-Dino
TTITLE10=Perdonala-Franco Tozzi
TTITLE11=Una rotonda sul mare-Fred Bongusto
TTITLE12=Se mi lasci non vale-Luciano Rossi
TTITLE13=Senti l'estate che torna-Le Orme
EXTD=0\n\n\n
EXTT0=
EXTT1=
EXTT2=
EXTT3=
EXTT4=
EXTT5=
EXTT6=
EXTT7=
EXTT8=
EXTT9=
EXTT10=
EXTT11=
EXTT12=
EXTT13=
PLAYORDER=
